# xmcd
#
# Track frame offsets: 
#        150
#        2010
#        23048
#        44085
#        64703
#        89035
#        91858
#        113618
#        135685
#        152803
#        154485
#        169685
#        188565
#        208195
#        221588
#        222460
#        241515
#        253168
#        265205
#
# Disc length: 3897 seconds
#
# Revision: 0
# Processed by: cddbd v1.5.1PL0 Copyright (c) Steve Scherf et al.
# Submitted via: ExactAudioCopy v0.90b4
#
DISCID=0e0f3713
DTITLE=Various Artist - Brothers and Sisters - Live From Philly - Disc 
DTITLE=2
DYEAR=1993
DGENRE=Soul
TTITLE0=The Picture Of Restraint I
TTITLE1=Matt Sevier - Positive Rethinking
TTITLE2=Grover Washington Jr - Summer Chill
TTITLE3=The Roots - Good Music
TTITLE4=2 Brothers - Life (Peace and Love)
TTITLE5=Restraint II
TTITLE6=Pete's Cathedral - Liberation
TTITLE7=Dandelion - I Can Remember
TTITLE8=The Outriders - Temptation
TTITLE9=Restraint III
TTITLE10=Ruder Than You - Swallow Blood
TTITLE11=Crushboy - Sneakin' In Your Backyard
TTITLE12=Rachelle Ferrell - Peace On Earth
TTITLE13=Jaime Kyle - Is There Still Time
TTITLE14=Restraint IV
TTITLE15=Zen For Primates - Fred
TTITLE16=Susan Werner - Uncle John
TTITLE17=The Philadelphia Boys Choir - All Things Bright And Beautiful
TTITLE18=Michael Tearson - The Picture Of Restraint
EXTD=
EXTT0=
EXTT1=
EXTT2=
EXTT3=
EXTT4=
EXTT5=
EXTT6=
EXTT7=
EXTT8=
EXTT9=
EXTT10=
EXTT11=
EXTT12=
EXTT13=
EXTT14=
EXTT15=
EXTT16=
EXTT17=
EXTT18=
PLAYORDER=
